<svg xmlns="http://www.w3.org/2000/svg" height="24" viewBox="0 -960 960 960" fill="black" width="24"><path d="M423.5-663.5Q400-687 400-720t23.5-56.5Q447-800 480-800t56.5 23.5Q560-753 560-720t-23.5 56.5Q513-640 480-640t-56.5-23.5ZM183.5-423.5Q160-447 160-480t23.5-56.5Q207-560 240-560t56.5 23.5Q320-513 320-480t-23.5 56.5Q273-400 240-400t-56.5-23.5ZM663.5-423.5Q640-447 640-480t23.5-56.5Q687-560 720-560t56.5 23.5Q800-513 800-480t-23.5 56.5Q753-400 720-400t-56.5-23.5ZM423.5-183.5Q400-207 400-240t23.5-56.5Q447-320 480-320t56.5 23.5Q560-273 560-240t-23.5 56.5Q513-160 480-160t-56.5-23.5Z"/></svg>
